<?xml version="1.0" encoding="UTF-8"?>
<!DOCTYPE svg PUBLIC "-//W3C//DTD SVG 1.0//EN" "http://www.w3.org/TR/2001/REC-SVG-20010904/DTD/svg10.dtd">
<!-- Creator: CorelDRAW X6 -->
<svg xmlns="http://www.w3.org/2000/svg" xml:space="preserve" width="66px" height="44px" version="1.0" style="shape-rendering:geometricPrecision; text-rendering:geometricPrecision; image-rendering:optimizeQuality; fill-rule:evenodd; clip-rule:evenodd"
viewBox="0 0 15 10"
 xmlns:xlink="http://www.w3.org/1999/xlink">
 <defs>
  <style type="text/css">
   <![CDATA[
    .str0 {stroke:#46B814;stroke-width:0.205332}
    .fil0 {fill:none}
   ]]>
  </style>
 </defs>
 <g id="Слой_x0020_1">
  <metadata id="CorelCorpID_0Corel-Layer"/>
  <g id="_499397936">
   <path class="fil0 str0" d="M11 6c0,0 1,0 1,0 0,0 0,0 0,0 0,0 0,0 0,0 0,0 0,0 0,0 0,0 0,0 0,0 0,0 0,0 0,0 0,0 0,0 0,0 0,0 0,0 0,0 0,0 0,0 1,0 0,0 0,0 0,0 0,0 0,0 0,0 0,0 0,0 0,0 0,0 0,0 0,0 0,0 0,0 0,0 0,0 0,0 0,0 0,0 0,0 0,1 0,0 0,0 0,1 0,0 0,0 0,0 0,0 0,0 0,0 0,0 0,0 0,0 0,0 0,0 0,0 0,0 0,0 0,0 0,0 0,0 0,0 0,0 0,0 0,0 0,0 0,0 -1,0 0,0 0,0 0,0 0,0 0,0 0,0 0,0 0,0 0,0 0,0 0,0 0,0 0,0 0,0 0,0 0,0 0,0 0,0 0,0 0,0 0,0 0,0 0,0 0,0 -1,0 -1,0 -2,0 0,0 0,0 0,0 1,0 1,-1 1,-1 0,0 0,0 0,0z"/>
   <path class="fil0 str0" d="M11 5c0,0 0,-1 -1,-1 0,0 0,0 0,0 0,0 0,0 0,0l0 0c0,0 1,0 1,0 0,0 0,0 0,0 0,0 0,0 0,0 0,0 0,0 1,0 0,0 0,0 0,0 0,0 1,0 1,0 0,0 0,0 0,0 0,0 0,0 0,0 0,0 0,0 0,0 0,0 0,0 0,0 0,0 0,0 0,0 0,0 0,0 0,1 0,0 0,0 0,1 0,0 0,0 0,0 0,0 0,0 0,0 0,0 0,0 0,0 0,0 0,0 0,0 0,0 0,0 0,0 0,0 0,0 0,0 0,0 0,0 -1,0 0,0 0,0 0,0 0,0 0,0 0,0 0,0 0,0 0,0 0,0 0,0 0,0 0,0 0,0 0,0 0,0 0,0 0,0 0,0 0,0 0,0 0,0 -1,0 -1,0 0,0 0,0 0,0z"/>
   <path class="fil0 str0" d="M3 6c0,0 -1,1 -1,1 0,0 0,0 0,0 -1,0 -2,-1 -2,-1 0,0 0,0 0,-1 0,0 0,0 0,0 0,0 0,0 0,0 0,0 0,0 0,0 0,0 0,0 0,0 0,0 0,0 0,0 0,0 0,0 0,0 0,0 1,0 1,0z"/>
   <path class="fil0 str0" d="M2 4c0,0 0,1 1,1 0,0 0,0 0,0 0,0 0,0 0,0l0 0c0,0 0,0 -1,0 0,0 0,0 0,0 0,0 0,0 0,0 0,0 0,0 0,0 0,0 0,0 0,0 0,0 0,0 0,0 0,0 0,0 0,0 0,0 0,0 0,-1 0,0 0,0 0,-1 0,0 0,0 0,0 0,0 0,0 0,0 0,0 0,0 0,0 0,0 0,0 0,0 0,0 0,0 0,0 0,0 0,0 0,0l0 0z"/>
   <path class="fil0 str0" d="M0 1c0,-1 1,-1 3,-1 0,0 1,0 2,0 -2,0 -3,1 -3,2 0,0 0,0 0,1 0,0 0,0 0,0 0,0 0,0 0,0 0,0 0,0 0,0 0,0 0,0 0,0 0,0 0,0 0,0 0,0 0,0 0,0 0,0 0,0 0,0 0,0 0,0 0,0 0,0 0,0 0,0 0,0 0,0 0,0 0,0 0,0 0,-1z"/>
   <path class="fil0 str0" d="M10 8c0,0 1,0 2,0 0,0 0,0 0,0 0,0 0,0 0,0 0,0 0,0 0,0 0,0 0,0 0,0 0,0 0,0 0,0 0,0 0,0 0,0 0,0 0,0 0,0 0,0 0,0 0,0 0,0 0,0 1,0 0,0 0,0 0,0 0,0 0,0 0,0 0,0 0,0 0,0 0,0 0,0 0,0 0,0 0,0 0,0 0,0 0,0 0,0 0,0 0,0 0,0 0,0 0,0 0,1 0,1 -1,1 -3,1 0,0 -1,0 -1,0 0,0 0,0 0,0 0,0 0,-1 -1,-1z"/>
   <path class="fil0 str0" d="M12 7c0,0 -1,0 -1,0 0,0 0,0 -1,-1 0,0 0,0 1,-1 0,0 1,0 1,0 0,0 0,0 0,0 0,0 0,0 0,0 0,0 0,0 0,0 0,0 0,0 0,0 0,0 0,0 0,0 0,0 0,0 0,0 0,0 0,0 0,0 0,0 0,0 1,0 0,0 0,0 0,0 0,0 0,0 0,0 0,0 0,0 0,0 0,0 0,0 0,0 0,0 0,0 0,0 0,0 0,0 0,0 0,0 0,0 0,1 0,0 0,0 0,1 0,0 0,0 0,0 0,0 0,0 0,0 0,0 0,0 0,0 0,0 0,0 0,0 0,0 0,0 0,0 0,0 0,0 0,0 0,0 0,0 -1,0 0,0 0,0 0,0 0,0 0,0 0,0 0,0 0,0 0,0 0,0 0,0 0,0 0,0 0,0 0,0 0,0 0,0 0,0 0,0 0,0 0,0z"/>
   <path class="fil0 str0" d="M12 4c0,0 -1,0 -1,0l0 0c0,0 0,0 0,-1 0,0 0,-1 -1,-1 0,0 1,0 1,-1 0,0 1,0 1,0 2,0 3,1 3,1 0,0 0,0 0,1 0,0 0,0 0,0 0,0 0,0 0,0 0,0 0,0 0,0 0,0 0,0 0,0 0,0 0,0 0,0 0,0 -1,0 -1,0 0,0 0,0 0,0 0,0 0,0 -1,0 0,0 0,0 0,0 0,0 0,0 0,0z"/>
   <path class="fil0 str0" d="M2 5c0,0 0,1 1,1 0,0 0,0 0,0l0 0c0,0 -1,0 -1,0 0,0 0,0 0,0 0,0 0,0 0,0 0,0 0,0 0,0 0,0 0,0 0,0 0,0 0,0 0,0 0,0 0,0 0,0 0,0 0,0 0,-1 0,0 0,0 0,-1 0,0 0,0 0,0 0,0 0,0 0,0 0,0 0,0 0,0 0,0 0,0 0,0 0,0 0,0 0,0 0,0 0,0 0,0 0,0 0,0 1,0 0,0 0,0 0,0z"/>
   <path class="fil0 str0" d="M3 3c0,0 -1,1 -1,1 0,0 0,0 0,0 0,0 0,0 0,0 0,0 0,0 0,0 0,0 0,0 0,0 0,0 0,0 0,0 0,0 0,0 0,0 0,0 0,0 0,0 0,0 0,0 0,-1 0,0 0,0 0,-1 0,0 0,0 0,0 0,0 0,0 0,0 0,0 0,0 0,0 0,0 0,0 0,0 0,0 0,0 0,0 0,0 0,0 0,0 0,0 0,0 0,0 0,0 0,0 0,0 0,0 0,0 0,0 0,0 0,0 0,0 0,0 0,0 0,0l0 0c0,0 0,0 0,0 0,0 0,0 0,0 0,0 0,0 0,0z"/>
   <path class="fil0 str0" d="M10 6c0,0 0,0 0,0 0,0 0,0 0,0z"/>
   <path class="fil0 str0" d="M10 6c0,0 0,0 0,0 0,0 0,0 0,0z"/>
   <path class="fil0 str0" d="M10 6c0,0 0,0 0,0 0,0 0,0 0,0z"/>
   <path class="fil0 str0" d="M8 5c0,0 0,0 0,0 0,0 0,0 0,0z"/>
   <path class="fil0 str0" d="M8 7c0,0 0,0 0,0 0,0 0,0 0,0z"/>
   <path class="fil0 str0" d="M8 8c0,0 0,0 0,0 0,0 0,0 0,0z"/>
   <path class="fil0 str0" d="M8 3c0,0 0,0 0,0 0,0 0,0 0,0z"/>
   <path class="fil0 str0" d="M8 3c0,0 0,0 0,0 0,0 0,0 0,0z"/>
   <path class="fil0 str0" d="M8 7c0,0 0,0 0,0 0,0 0,0 0,0z"/>
   <path class="fil0 str0" d="M8 5c0,0 0,0 0,0 0,0 0,0 0,0z"/>
   <path class="fil0 str0" d="M8 5c0,0 0,0 0,0 0,0 0,0 0,0z"/>
   <path class="fil0 str0" d="M8 7c0,0 0,0 0,0 0,0 0,0 0,0z"/>
   <path class="fil0 str0" d="M8 3c0,0 0,0 0,0 0,0 0,0 0,0z"/>
   <path class="fil0 str0" d="M8 8c0,0 0,0 0,0 0,0 0,0 0,0z"/>
   <path class="fil0 str0" d="M8 5c0,0 0,0 0,0 0,0 0,0 0,0z"/>
   <path class="fil0 str0" d="M8 7c0,0 0,0 0,0 0,0 0,0 0,0z"/>
   <path class="fil0 str0" d="M8 8c0,0 0,0 0,0 0,0 0,0 0,0z"/>
   <path class="fil0 str0" d="M8 3c0,0 0,0 0,0 0,0 0,0 0,0z"/>
   <path class="fil0 str0" d="M7 5c0,0 0,0 0,0 0,0 0,0 0,0z"/>
   <path class="fil0 str0" d="M7 7c0,0 0,0 0,0 0,0 0,0 0,0z"/>
   <path class="fil0 str0" d="M6 0c2,0 4,1 4,2 0,0 0,0 0,0 0,0 0,1 -1,1 0,0 0,0 0,0 0,0 0,0 0,0 0,0 0,0 0,0 0,0 0,0 0,0 0,0 0,0 0,0 0,0 0,0 0,0 0,0 0,0 0,0 0,0 0,0 0,0 0,0 0,0 0,0 0,0 0,0 -1,0 0,0 0,0 0,0 0,0 0,0 0,0 0,0 0,0 0,0 0,0 0,0 0,0 0,0 0,0 0,0 0,0 0,0 0,0 0,0 0,0 0,0 0,0 0,0 0,0 0,0 0,0 0,0 0,0 0,0 0,0 0,0 0,0 0,0 0,0 0,0 0,0 0,0 0,0 0,0 0,0 0,0 0,0 0,0 0,0 0,0 0,0 0,0 0,0 0,0 0,0 0,0 0,0 0,0 0,0 0,0 0,0 0,0 0,0 0,0 0,0 0,0 0,0 0,0 0,0 0,0 0,0 0,0 0,0 0,0 0,0 0,0 0,0 0,0 0,0 0,0 0,0 0,0 0,0 0,0 0,0 0,0 0,0 0,0 0,0 0,0 0,0 0,0 0,0 0,0 0,0 0,0 0,0 0,0 0,0 0,0 0,0 0,0 0,0 0,0 0,0 0,0 0,0 0,0 0,0 0,0 0,0 0,0 0,0l0 0c0,0 0,0 0,-1 0,-1 1,-1 3,-2 0,0 1,0 2,0z"/>
   <path class="fil0 str0" d="M6 5c0,0 0,0 0,0 0,0 0,0 0,0z"/>
   <path class="fil0 str0" d="M6 7c0,0 0,0 0,0 0,0 0,0 0,0z"/>
   <path class="fil0 str0" d="M5 5c0,0 0,0 0,0 0,0 0,0 0,0z"/>
   <path class="fil0 str0" d="M5 7c0,0 0,0 0,0 0,0 0,0 0,0z"/>
   <path class="fil0 str0" d="M5 3c0,0 0,0 0,0 0,0 0,0 0,0z"/>
   <path class="fil0 str0" d="M5 8c0,0 0,0 0,0 0,0 0,0 0,0z"/>
   <path class="fil0 str0" d="M5 5c0,0 0,0 0,0 0,0 0,0 0,0z"/>
   <path class="fil0 str0" d="M5 7c0,0 0,0 0,0 0,0 0,0 0,0z"/>
   <path class="fil0 str0" d="M5 8c0,0 0,0 0,0 0,0 0,0 0,0z"/>
   <path class="fil0 str0" d="M5 3c0,0 0,0 0,0 0,0 0,0 0,0z"/>
   <path class="fil0 str0" d="M5 5c0,0 0,0 0,0 0,0 0,0 0,0z"/>
   <path class="fil0 str0" d="M5 7c0,0 0,0 0,0 0,0 0,0 0,0z"/>
   <path class="fil0 str0" d="M5 3c0,0 0,0 0,0 0,0 0,0 0,0z"/>
   <path class="fil0 str0" d="M4 5c0,0 0,0 0,0 0,0 0,0 0,0z"/>
   <path class="fil0 str0" d="M4 7c0,0 0,0 0,0 0,0 0,0 0,0z"/>
   <path class="fil0 str0" d="M4 8c0,0 0,0 0,0 0,0 0,0 0,0z"/>
   <path class="fil0 str0" d="M4 3c0,0 0,0 0,0 0,0 0,0 0,0z"/>
   <path class="fil0 str0" d="M4 6c0,0 0,0 0,0 0,0 0,0 0,0z"/>
   <path class="fil0 str0" d="M6 10c-2,0 -4,-1 -4,-2 0,0 0,-1 1,-1 0,0 0,0 0,0 0,0 0,0 0,0 0,0 0,0 0,0 0,0 0,0 0,0 0,0 0,0 0,0 0,0 0,0 0,0 0,0 0,0 0,0 0,0 0,0 0,0 0,0 0,0 0,0 0,0 0,0 0,0 0,0 0,0 0,0 0,0 0,0 0,0 0,0 0,0 0,0 0,0 0,0 0,0 0,0 0,0 0,0 0,0 0,0 0,0 0,0 1,0 1,0 0,0 0,0 0,0 0,0 0,0 0,0 0,0 0,0 0,0 0,0 0,0 0,0 0,0 0,0 0,0 0,0 0,0 0,0 0,0 0,0 0,0 0,0 0,0 0,0 0,0 0,0 0,0 0,0 1,1 1,1 0,0 0,0 0,0 0,1 -2,1 -4,1z"/>
   <path class="fil0 str0" d="M3 6c0,0 0,0 0,0 0,0 0,0 0,0z"/>
   <path class="fil0 str0" d="M3 6c0,0 0,0 0,0 0,0 0,0 0,0z"/>
   <path class="fil0 str0" d="M3 6c0,0 0,0 0,0 0,0 0,0 0,0z"/>
   <path class="fil0 str0" d="M3 6c0,0 0,0 0,0 0,0 0,0 0,0z"/>
   <path class="fil0 str0" d="M10 4c0,0 1,1 1,1 0,0 0,0 0,0 0,0 0,0 -1,1 0,0 0,0 0,0 0,0 0,0 0,0 0,0 0,0 0,0 0,0 0,0 0,0 0,0 0,0 0,0 0,0 0,0 0,0 0,0 -1,0 -1,0 0,0 0,0 0,0 0,0 0,0 0,0 0,0 0,0 0,0 0,0 0,0 0,0 0,0 0,0 0,0 0,0 0,0 0,0 0,0 0,0 0,0 0,0 0,0 -1,0 0,0 0,0 0,0 0,0 0,0 0,0 0,0 0,0 0,0 0,0 0,0 0,0 0,0 0,0 0,0 0,0 0,0 0,0 0,0 0,0 0,0 0,0 0,0 0,0 0,0 0,0 0,0 0,0 0,0 -1,0 0,0 0,0 0,0 0,0 0,0 0,0 0,0 0,0 0,0 0,0 0,0 0,0 0,0 0,0 0,0 0,0 0,0 0,0 0,0 0,0 0,0 0,0 -1,-1 -1,-1 0,0 0,0 0,0l0 0c0,0 0,0 0,0 0,0 0,0 0,0 0,0 0,0 0,0 0,0 0,0 0,0 0,0 0,0 0,0 0,0 0,0 0,0 0,0 0,0 0,0 0,0 0,0 1,0 0,0 0,0 0,0 0,0 0,0 0,0 0,0 0,0 0,0 0,0 0,0 0,0 0,0 0,0 0,0 0,0 0,0 0,0 0,0 0,0 0,0 0,0 0,0 0,0 0,0 0,0 0,0 0,0 0,0 0,0 0,0 0,0 0,0 0,0 0,0 1,0 0,0 0,0 0,0 0,0 0,0 0,0 0,0 0,0 0,0 0,0 0,0 0,0 0,0 0,0 0,0 0,0 0,0 0,0 0,0 0,0 0,0 0,0 0,0 0,0 0,0 0,0 0,0 0,0 0,0 1,0 0,0 0,0 0,0 0,0 0,0 0,0 0,0 0,0 0,0z"/>
   <path class="fil0 str0" d="M2 3c0,0 0,-1 1,-1 0,0 0,0 0,0 0,0 0,0 0,0 0,0 0,0 0,0 0,0 0,0 0,0 0,0 0,0 0,0 0,0 0,0 0,0 0,0 0,0 0,0 0,0 0,0 0,0 0,0 0,0 0,0 0,0 0,0 0,0 0,0 0,0 0,0 0,0 0,0 0,0 0,0 0,0 0,0 0,0 0,0 0,0 0,0 0,0 0,0 0,0 0,0 0,0 0,0 0,0 0,0 0,0 0,0 0,0 0,0 0,0 0,0 0,0 0,0 0,0 0,0 0,0 0,0 0,0 0,0 0,0 0,0 0,0 0,0 0,0 0,0 0,0 0,0 0,0 0,0 0,0 0,0 0,0 0,0 0,0 0,0 0,0 0,0 0,0 0,0 0,0 0,0 0,0 0,0 0,0 0,0 0,0 0,0 0,0 0,0 0,0 0,0 0,0 0,0 0,0 0,0 1,0 0,0 0,0 0,0 0,0 0,0 0,0 0,0 0,0 0,0l0 0c0,0 0,0 0,0 0,0 0,0 0,0 0,0 0,0 0,0 0,0 0,0 0,0 0,0 0,0 0,0 0,0 1,1 1,1 0,0 0,0 0,1 0,0 0,0 0,0 0,0 0,0 0,0 0,0 0,0 0,0 0,0 0,0 -1,0 0,0 0,0 0,0 0,0 0,0 0,0 0,0 0,0 0,0 0,0 0,0 0,0 0,0 0,0 0,0 0,0 0,0 0,0 0,0 0,0 0,0 0,0 0,0 0,0 0,0 0,0 0,0 0,0 0,0 -1,0 0,0 0,0 0,0 0,0 0,0 0,0 0,0 0,0 0,0 0,0 0,0 0,0 0,0 0,0 0,0 0,0 0,0 0,0 0,0 0,0 0,0 0,0 0,0 0,0 0,0 0,0 0,0 0,0 0,0 0,0 0,0 0,0 0,0 0,0 0,0 -1,0 0,0 0,0 0,0 0,0 0,0 0,0 0,0 0,0 0,0 0,0 0,0 0,0 0,0 0,0 0,0 0,0 -1,-1 -1,-1l0 0 0 0c0,0 0,0 0,0z"/>
   <path class="fil0 str0" d="M2 7c0,0 0,-1 1,-1l0 0c0,0 0,0 0,0 0,0 0,0 0,0 0,0 0,0 0,0 0,0 0,0 0,0 0,0 0,0 0,0 0,0 0,0 0,0 0,0 0,0 0,0 0,0 0,0 0,0 0,0 0,0 1,0 0,0 0,0 0,0 0,0 0,0 0,0 0,0 0,0 0,0 0,0 0,0 0,0 0,0 0,0 0,0 0,0 0,0 0,0 0,0 0,0 0,0 0,0 0,0 0,0 0,0 0,0 0,0 0,0 0,0 1,0 0,0 0,0 0,0 0,0 0,0 0,0 0,0 0,0 0,0 0,0 0,0 0,0 0,0 0,0 0,0 0,0 0,0 0,0 0,0 0,0 0,0 0,0 1,0 1,0 0,0 0,0 0,0 0,0 0,0 0,0 0,0 0,0 0,0 0,0 0,0 0,0 0,0 0,0 0,0 0,0 0,0 0,0 0,0 0,0 1,1 0,0 0,0 0,0 0,0 0,1 -1,1 0,0 0,0 0,0 0,0 0,0 0,0 0,0 0,0 0,0 0,0 0,0 0,0 0,0 0,0 0,0 0,0 0,0 0,0 0,0 0,0 0,0 0,0 0,0 0,0 0,0 -1,0 -1,0 0,0 0,0 0,0 0,0 0,0 0,0 0,0 0,0 0,0 0,0 0,0 0,0 0,0 0,0 0,0 0,0 0,0 0,0 0,0 0,0 0,0 0,0 0,0 0,0 0,0 0,0 0,0 0,0 0,0 0,0 0,0 0,0 0,0 0,0 0,0 0,0 0,0 0,0 0,0 0,0 0,0 0,0 0,0 0,0 0,0 0,0 0,0 -1,-1 0,0 0,0 0,0z"/>
   <path class="fil0 str0" d="M2 3c0,0 0,0 0,0 0,0 0,0 0,0z"/>
   <path class="fil0 str0" d="M2 3c0,0 0,0 0,0 0,0 0,0 0,0z"/>
   <path class="fil0 str0" d="M2 2c0,0 0,0 0,0 0,0 0,0 0,0z"/>
   <path class="fil0 str0" d="M9 8c0,0 0,0 0,0 0,0 0,0 0,0 0,0 1,1 1,1 0,0 0,0 0,0 0,1 -2,1 -4,1 -2,0 -4,-1 -4,-2 0,0 0,-1 1,-1 0,0 0,0 0,0"/>
   <path class="fil0 str0" d="M9 8c0,0 0,0 0,0"/>
   <path class="fil0 str0" d="M6 8c0,0 0,0 0,0"/>
   <path class="fil0 str0" d="M4 8c0,0 0,0 0,0 0,0 0,0 0,0"/>
   <path class="fil0 str0" d="M3 8c0,0 0,0 0,0 0,0 0,0 0,0 0,0 0,0 0,0"/>
   <path class="fil0 str0" d="M6 7c0,0 0,0 0,0"/>
   <path class="fil0 str0" d="M3 6c0,0 0,0 0,0"/>
   <path class="fil0 str0" d="M10 6c0,0 0,0 1,1 0,0 0,0 0,0 0,0 0,1 -1,1 0,0 0,0 0,0 0,0 0,0 0,0 0,0 0,0 0,0 0,0 0,0 0,0 0,0 0,0 0,0 0,0 0,0 0,0 0,0 0,0 0,0 0,0 0,0 0,0 0,0 -1,0 -1,0 0,0 0,0 0,0 0,0 0,0 0,0 0,0 0,0 0,0 0,0 0,0 0,0 0,0 0,0 0,0 0,0 0,0 0,0 0,0 0,0 0,0 0,0 0,0 0,0 0,0 0,0 0,0 0,0 0,0 0,0 0,0 0,0 0,0 0,0 0,0 0,0 0,0 0,0 0,0 0,0 0,0 0,0 0,0 0,0 0,0 0,0 0,0 -1,-1 0,0 0,0 0,0 0,0 0,-1 1,-1"/>
   <path class="fil0 str0" d="M10 5c0,0 0,0 0,0 0,0 0,0 0,0 0,0 0,0 0,0 0,0 1,1 1,1 0,0 0,0 0,0 0,0 0,0 -1,1 0,0 0,0 0,0 0,0 0,0 0,0 0,0 0,0 0,0 0,0 0,0 0,0 0,0 0,0 0,0 0,0 0,0 0,0 0,0 -1,0 -1,0 0,0 0,0 0,0 0,0 0,0 0,0 0,0 0,0 0,0 0,0 0,0 0,0 0,0 0,0 0,0 0,0 0,0 0,0 0,0 0,0 0,0 0,0 0,0 -1,0 0,0 0,0 0,0 0,0 0,0 0,0 0,0 0,0 0,0 0,0 0,0 0,0 0,0 0,0 0,0 0,0 0,0 0,0 0,0 0,0 0,0 0,0 0,0 0,0 0,0 0,0 0,0 0,0 0,0 -1,0 0,0 0,0 0,0 0,0 0,0 0,0 0,0 0,0 0,0 0,0 0,0 0,0 0,0 0,0 0,0 0,0 0,0 0,0 0,0 0,0 0,0 0,0 -1,-1 -1,-1 0,0 0,0 0,0"/>
   <path class="fil0 str0" d="M9 5c0,0 0,0 0,0"/>
   <path class="fil0 str0" d="M6 5c0,0 0,0 0,0"/>
   <path class="fil0 str0" d="M4 5c0,0 0,0 0,0"/>
   <path class="fil0 str0" d="M3 4c0,0 0,0 0,0 0,0 0,0 0,0"/>
   <path class="fil0 str0" d="M3 4c0,0 0,0 0,0"/>
   <path class="fil0 str0" d="M2 5c0,0 0,0 0,0 0,0 0,0 0,0"/>
   <path class="fil0 str0" d="M10 3c0,0 0,0 0,0"/>
   <path class="fil0 str0" d="M10 3c0,0 0,0 0,0"/>
   <path class="fil0 str0" d="M9 3c0,0 0,0 1,0 0,0 0,0 0,0 0,0 0,0 0,0 0,0 0,0 0,0l0 0"/>
   <path class="fil0 str0" d="M7 3c0,0 0,0 0,0"/>
   <path class="fil0 str0" d="M6 3c0,0 0,0 0,0"/>
   <path class="fil0 str0" d="M4 3c0,0 0,0 0,0 0,0 0,0 0,0"/>
   <path class="fil0 str0" d="M4 3c0,0 0,0 0,0"/>
   <path class="fil0 str0" d="M3 3c0,0 0,0 0,0 0,0 0,0 0,0"/>
   <path class="fil0 str0" d="M3 3c0,0 0,0 0,0"/>
   <path class="fil0 str0" d="M3 3c0,0 0,0 0,0"/>
   <path class="fil0 str0" d="M2 4l0 0c0,0 0,0 0,0 0,0 0,-1 1,-1"/>
   <path class="fil0 str0" d="M10 3c0,0 1,1 1,1 0,0 0,0 0,1 0,0 0,0 0,0 0,0 0,0 0,0 0,0 0,0 0,0 0,0 0,0 -1,0 0,0 0,0 0,0 0,0 0,0 0,0 0,0 0,0 0,0 0,0 0,0 0,0 0,0 0,0 0,0 0,0 0,0 0,0 0,0 0,0 0,0 0,0 0,0 0,0 0,0 0,0 0,0 0,0 0,0 -1,0 0,0 0,0 0,0 0,0 0,0 0,0 0,0 0,0 0,0 0,0 0,0 0,0 0,0 0,0 0,0 0,0 0,0 0,0 0,0 0,0 0,0 0,0 0,0 0,0 0,0 0,0 0,0 0,0 0,0 0,0 0,0 0,0 0,0 0,0 0,0 -1,0 0,0 0,0 0,0 0,0 0,0 0,0 0,0 0,0 0,0 0,0 0,0 0,0 0,0 0,0 0,0 0,0 -1,-1 -1,-1"/>
   <path class="fil0 str0" d="M2 2c0,0 0,0 0,-1 0,-1 1,-1 3,-2 0,0 1,0 2,0 2,0 4,1 4,2 0,0 0,0 0,0 0,0 0,1 -1,1 0,0 0,0 0,0 0,0 0,0 0,0 0,0 0,0 0,0 0,0 0,0 0,0 0,0 0,0 0,0 0,0 0,0 0,0 0,0 0,0 0,0 0,0 0,0 0,0 0,0 0,0 0,0 0,0 0,0 -1,0 0,0 0,0 0,0 0,0 0,0 0,0 0,0 0,0 0,0 0,0 0,0 0,0 0,0 0,0 0,0 0,0 0,0 0,0 0,0 0,0 0,0 0,0 0,0 0,0 0,0 0,0 0,0 0,0 0,0 0,0 0,0 0,0 0,0 0,0 0,0 0,0 0,0 0,0 0,0 0,0 0,0 0,0 0,0 0,0 0,0 0,0 0,0 0,0 0,0 0,0 0,0 0,0 0,0 0,0 0,0 0,0 0,0 0,0 0,0 0,0 0,0 0,0 0,0 0,0 0,0 0,0 0,0 0,0 0,0 0,0 0,0 0,0 0,0 0,0 0,0 0,0 0,0 0,0 0,0 0,0 0,0 0,0 0,0 0,0 0,0 0,0 0,0 0,0 0,0 0,0 0,0 0,0 0,0 0,0 0,0 0,0"/>
   <path class="fil0 str0" d="M3 3c0,0 0,0 0,0 0,0 0,0 0,0 0,0 0,0 0,0"/>
   <path class="fil0 str0" d="M14 7c0,0 0,0 0,0 0,0 0,0 0,1 0,1 -1,1 -3,1 0,0 -1,0 -1,0"/>
   <path class="fil0 str0" d="M14 7c0,0 0,0 0,0"/>
   <path class="fil0 str0" d="M14 7c0,0 0,0 0,0"/>
   <path class="fil0 str0" d="M14 7c0,0 0,0 0,0"/>
   <path class="fil0 str0" d="M13 8c0,0 0,0 0,0"/>
   <path class="fil0 str0" d="M13 8c0,0 0,0 0,0"/>
   <path class="fil0 str0" d="M12 8c0,0 0,0 0,0"/>
   <path class="fil0 str0" d="M12 8c0,0 0,0 0,0"/>
   <path class="fil0 str0" d="M15 6c0,0 0,0 0,1 0,0 0,0 0,1 0,0 0,0 0,0 0,0 0,0 0,0 0,0 0,0 0,0 0,0 0,0 0,0 0,0 0,0 0,0 0,0 0,0 0,0 0,0 0,0 0,0 0,0 0,0 -1,0 0,0 0,0 0,0 0,0 0,0 0,0 0,0 0,0 0,0 0,0 0,0 0,0 0,0 0,0 0,0 0,0 0,0 0,0 0,0 0,0 0,0 0,0 0,0 0,0 -1,0 -1,0 -2,0"/>
   <path class="fil0 str0" d="M14 6c0,0 0,0 0,0"/>
   <path class="fil0 str0" d="M14 6c0,0 0,0 0,0"/>
   <path class="fil0 str0" d="M14 6c0,0 0,0 0,0"/>
   <path class="fil0 str0" d="M13 6c0,0 0,0 0,0"/>
   <path class="fil0 str0" d="M13 6c0,0 0,0 0,0"/>
   <path class="fil0 str0" d="M12 7c0,0 0,0 0,0 0,0 0,0 0,0"/>
   <path class="fil0 str0" d="M15 5c0,0 0,0 0,1 0,0 0,0 0,1 0,0 0,0 0,0 0,0 0,0 0,0 0,0 0,0 0,0 0,0 0,0 0,0 0,0 0,0 0,0 0,0 0,0 0,0 0,0 0,0 -1,0 0,0 0,0 0,0 0,0 0,0 0,0 0,0 0,0 0,0 0,0 0,0 0,0 0,0 0,0 0,0 0,0 0,0 0,0 0,0 0,0 0,0 0,0 -1,0 -1,0"/>
   <path class="fil0 str0" d="M14 5c0,0 0,0 0,0"/>
   <path class="fil0 str0" d="M14 5c0,0 0,0 0,0"/>
   <path class="fil0 str0" d="M14 5c0,0 0,0 0,0"/>
   <path class="fil0 str0" d="M13 5c0,0 0,0 0,0"/>
   <path class="fil0 str0" d="M13 5c0,0 0,0 0,0"/>
   <path class="fil0 str0" d="M12 5c0,0 0,0 0,0 0,0 0,0 0,0"/>
   <path class="fil0 str0" d="M15 4c0,0 0,0 0,1 0,0 0,0 0,1 0,0 0,0 0,0 0,0 0,0 0,0 0,0 0,0 0,0 0,0 0,0 0,0 0,0 0,0 0,0 0,0 0,0 0,0 0,0 0,0 -1,0 0,0 0,0 0,0 0,0 0,0 0,0 0,0 0,0 0,0 0,0 0,0 0,0 0,0 0,0 0,0 0,0 0,0 0,0 0,0 0,0 0,0 0,0 -1,0 -1,0"/>
   <path class="fil0 str0" d="M14 4c0,0 0,0 0,0"/>
   <path class="fil0 str0" d="M14 4c0,0 0,0 0,0 0,0 0,0 0,0"/>
   <path class="fil0 str0" d="M13 4c0,0 0,0 0,0"/>
   <path class="fil0 str0" d="M12 4c0,0 0,0 0,0"/>
   <path class="fil0 str0" d="M11 2c0,0 1,0 1,0 2,0 3,1 3,1 0,0 0,0 0,1 0,0 0,0 0,0 0,0 0,0 0,0 0,0 0,0 0,0 0,0 0,0 0,0 0,0 0,0 0,0 0,0 -1,0 -1,0 0,0 0,0 0,0 0,0 0,0 -1,0 0,0 0,0 0,0 0,0 0,0 0,0 0,0 -1,0 -1,0"/>
   <path class="fil0 str0" d="M1 5c0,0 0,0 0,1 0,0 1,1 2,1"/>
   <path class="fil0 str0" d="M1 5c0,0 0,0 0,0"/>
   <path class="fil0 str0" d="M1 6c0,0 0,0 0,0"/>
   <path class="fil0 str0" d="M1 6c0,0 0,0 0,0"/>
   <path class="fil0 str0" d="M1 4c0,0 0,0 0,1 0,0 0,0 0,1 0,0 0,0 0,0 0,0 0,0 0,0 0,0 0,0 0,0 0,0 0,0 0,0 0,0 0,0 0,0 0,0 0,0 0,0 0,0 1,0 1,0l0 0"/>
   <path class="fil0 str0" d="M1 4c0,0 0,0 0,0 0,0 0,0 0,0 0,0 0,0 0,0"/>
   <path class="fil0 str0" d="M1 5c0,0 0,0 0,0"/>
   <path class="fil0 str0" d="M1 3c0,0 0,0 0,1 0,0 0,0 0,1 0,0 0,0 0,0 0,0 0,0 0,0 0,0 0,0 0,0 0,0 0,0 0,0 0,0 0,0 0,0 0,0 0,0 0,0 0,0 0,0 1,0l0 0"/>
   <path class="fil0 str0" d="M2 3c0,0 0,0 0,0 0,0 0,0 0,0 0,0 0,0 0,0"/>
   <path class="fil0 str0" d="M2 4l0 0c0,0 0,0 0,0"/>
   <path class="fil0 str0" d="M1 2c0,0 0,0 0,0 0,0 0,0 0,1 0,0 0,0 0,1 0,0 0,0 0,0 0,0 0,0 0,0 0,0 0,0 0,0 0,0 0,0 0,0 0,0 0,0 0,0 0,0 0,0 0,0l0 0"/>
   <path class="fil0 str0" d="M1 2c0,0 0,0 0,0 0,0 0,0 0,0 0,0 0,0 0,0 0,0 0,0 0,0"/>
   <path class="fil0 str0" d="M2 2c0,0 0,0 0,0 0,0 0,0 0,0 0,0 0,0 0,0 0,0 0,0 0,0"/>
   <path class="fil0 str0" d="M3 3c0,0 0,0 0,0 0,0 0,0 0,0 0,0 0,0 0,0 0,0 0,0 0,0"/>
   <path class="fil0 str0" d="M5 0c0,0 0,0 0,0 0,0 -1,0 -2,0 -2,0 -3,1 -3,1 0,0 0,0 0,1 0,0 0,0 0,0 0,0 0,0 0,0 0,0 0,0 0,0 0,0 0,0 0,0 0,0 0,0 0,0 0,0 0,0 0,0 0,0 0,0 0,0 0,0 0,0 0,0 0,0 0,0 0,0 0,0 0,0 0,0l0 0"/>
  </g>
 </g>
</svg>
