<?xml version="1.0" encoding="UTF-8"?>
<!DOCTYPE svg PUBLIC "-//W3C//DTD SVG 1.0//EN" "http://www.w3.org/TR/2001/REC-SVG-20010904/DTD/svg10.dtd">
<!-- Creator: CorelDRAW X6 -->
<svg xmlns="http://www.w3.org/2000/svg" xml:space="preserve" width="58px" height="65px" version="1.0" style="shape-rendering:geometricPrecision; text-rendering:geometricPrecision; image-rendering:optimizeQuality; fill-rule:evenodd; clip-rule:evenodd"
viewBox="0 0 6 7"
 xmlns:xlink="http://www.w3.org/1999/xlink">
 <defs>
  <style type="text/css">
   <![CDATA[
    .fil0 {fill:#46B814}
   ]]>
  </style>
 </defs>
 <g id="Слой_x0020_1">
  <metadata id="CorelCorpID_0Corel-Layer"/>
  <g id="_499399592">
   <path class="fil0" d="M0 6l4 0 0 -6 -4 0 0 6zm4 0l-4 0c0,0 0,0 0,0l0 -6c0,0 0,0 0,0l4 0c0,0 0,0 0,0l0 6c0,0 0,0 0,0z"/>
   <path class="fil0" d="M5 5l0 1 0 -1 0 -3 -1 0 0 3zm0 1c0,0 0,0 0,0l0 -1c0,0 0,0 0,0l0 -3c0,0 0,0 0,0l1 0c0,0 0,0 0,0l0 3c0,0 0,0 0,0l0 1c0,0 0,0 0,0z"/>
   <path class="fil0" d="M5 6l0 0 0 0c0,0 0,0 0,0zm0 0c0,0 0,0 0,0l0 0c0,0 0,0 0,0 0,0 0,0 0,0 0,0 0,0 0,0 0,0 0,0 0,0 0,0 0,0 0,0l0 0c0,0 0,0 0,0l0 0z"/>
   <path class="fil0" d="M6 5c0,0 0,0 0,0l0 0 0 0c0,0 0,0 0,0l0 0 0 0c0,0 0,0 0,0l0 0c0,0 0,0 0,0l0 0 0 0c0,0 0,0 0,0 0,0 0,0 0,0l0 0c0,0 0,0 0,0l0 0 0 0c0,0 0,0 0,0l0 0 0 0c0,0 0,0 0,0l0 0c0,0 0,0 0,0 0,0 0,0 0,0z"/>
   <path class="fil0" d="M5 5c0,0 0,0 0,0l0 -3c0,0 0,0 0,0 0,0 0,0 0,0l0 3c0,0 0,0 0,0z"/>
   <path class="fil0" d="M5 5c0,0 0,0 0,0l0 -3c0,0 0,0 0,0 0,0 0,0 0,0 0,0 0,0 0,0l0 3c0,0 0,0 0,0 0,0 0,0 0,0z"/>
   <path class="fil0" d="M6 5c0,0 0,0 0,0l0 -3c0,0 0,0 0,0 0,0 0,0 0,0l0 3c0,0 0,0 0,0z"/>
   <path class="fil0" d="M5 2l1 0 0 0c0,0 0,0 0,0l0 0c0,0 0,0 0,0l0 0zm1 0l-1 0c0,0 0,0 0,0l0 0c0,0 0,0 0,0l0 0c0,0 0,0 0,0l0 0c0,0 0,0 0,0z"/>
   <path class="fil0" d="M1 2l3 0 0 -1 -3 0 0 1zm3 0l-3 0c0,0 0,0 0,0l0 -1c0,0 0,0 0,0l3 0c0,0 0,0 0,0l0 1c0,0 0,0 0,0z"/>
   <path class="fil0" d="M4 2l-3 0c0,0 0,0 0,0 0,0 0,0 0,0l3 0c0,0 0,0 0,0 0,0 0,0 0,0z"/>
   <path class="fil0" d="M4 3l-3 0c0,0 0,0 0,0 0,0 0,0 0,0l3 0c0,0 0,0 0,0 0,0 0,0 0,0z"/>
   <path class="fil0" d="M4 3l-2 0c0,0 0,0 0,0 0,0 0,0 0,0l2 0c0,0 0,0 0,0 0,0 0,0 0,0z"/>
   <path class="fil0" d="M3 4l-2 0c0,0 0,0 0,0 0,0 0,0 0,0l2 0c0,0 0,0 0,0 0,0 0,0 0,0z"/>
   <path class="fil0" d="M4 4l-3 0c0,0 0,0 0,0 0,0 0,0 0,0l3 0c0,0 0,0 0,0 0,0 0,0 0,0z"/>
   <path class="fil0" d="M4 5l-2 0c0,0 0,0 0,0 0,0 0,0 0,0l2 0c0,0 0,0 0,0 0,0 0,0 0,0z"/>
   <path class="fil0" d="M4 5l-3 0c0,0 0,0 0,0 0,0 0,0 0,0l3 0c0,0 0,0 0,0 0,0 0,0 0,0z"/>
   <path class="fil0" d="M1 1c0,0 0,0 0,0l0 -1c0,0 0,0 0,0 0,0 0,0 0,0l0 1c0,0 0,0 0,0zm1 0c0,0 0,0 0,0l0 -1c0,0 0,0 0,0 0,0 0,0 0,0l0 1c0,0 0,0 0,0zm1 0c0,0 0,0 0,0l0 -1c0,0 0,0 0,0 0,0 0,0 0,0l0 1c0,0 0,0 0,0zm1 0c0,0 0,0 0,0l0 -1c0,0 0,0 0,0 0,0 0,0 0,0l0 1c0,0 0,0 0,0zm1 0c0,0 0,0 0,0l0 -1c0,0 0,0 0,0 0,0 0,0 0,0l0 1c0,0 0,0 0,0zm1 0c0,0 0,0 0,0l0 -1c0,0 0,0 0,0 0,0 0,0 0,0l0 1c0,0 0,0 0,0zm1 0c0,0 0,0 0,0l0 -1c0,0 0,0 0,0 0,0 0,0 0,0l0 1c0,0 0,0 0,0z"/>
  </g>
 </g>
</svg>
